#  wavefront obj file written by the visualization toolkit

mtllib .mtl

v -182.25 -181.5 0
v -182.25 -181.5 168
v -182.25 60 0
v -182.25 60 168
v 65 -181.5 0
v 65 -181.5 168
v 65 60 0
v 65 60 168
v -182.25 -181.5 0
v -182.25 -181.5 168
v 65 -181.5 0
v 65 -181.5 168
v -182.25 60 0
v -182.25 60 168
v 65 60 0
v 65 60 168
v -182.25 -181.5 0
v 65 -181.5 0
v -182.25 60 0
v 65 60 0
v -182.25 -181.5 168
v 65 -181.5 168
v -182.25 60 168
v 65 60 168
vn -1 0 0
vn -1 0 0
vn -1 0 0
vn -1 0 0
vn 1 0 0
vn 1 0 0
vn 1 0 0
vn 1 0 0
vn 0 -1 0
vn 0 -1 0
vn 0 -1 0
vn 0 -1 0
vn 0 1 0
vn 0 1 0
vn 0 1 0
vn 0 1 0
vn 0 0 -1
vn 0 0 -1
vn 0 0 -1
vn 0 0 -1
vn 0 0 1
vn 0 0 1
vn 0 0 1
vn 0 0 1
vt 0.5 -181 0
vt 168.5 -181 0
vt 0.5 60.5 0
vt 168.5 60.5 0
vt -0.5 -181 0
vt -168.5 -181 0
vt -0.5 60.5 0
vt -168.5 60.5 0
vt 181.75 -0.5 0
vt 181.75 -168.5 0
vt -65.5 -0.5 0
vt -65.5 -168.5 0
vt -181.75 -0.5 0
vt -181.75 -168.5 0
vt 65.5 -0.5 0
vt 65.5 -168.5 0
vt 181.75 -181 0
vt -65.5 -181 0
vt 181.75 60.5 0
vt -65.5 60.5 0
vt -181.75 -181 0
vt 65.5 -181 0
vt -181.75 60.5 0
vt 65.5 60.5 0

g grp1
usemtl mtl1
f 1/1/1 2/2/2 4/4/4 3/3/3 
f 5/5/5 7/7/7 8/8/8 6/6/6 
f 9/9/9 11/11/11 12/12/12 10/10/10 
f 13/13/13 14/14/14 16/16/16 15/15/15 
f 17/17/17 19/19/19 20/20/20 18/18/18 
f 21/21/21 22/22/22 24/24/24 23/23/23 

g grp25
usemtl mtl25
